<?xml version="1.0" encoding="UTF-8"?>
<svg id="Logotipo_Alternativo" data-name="Logotipo Alternativo" xmlns="http://www.w3.org/2000/svg" viewBox="0 0 1080 1080">
  <defs>
    <style>
      .cls-1 {
        fill: #133c5c;
      }

      .cls-2 {
        fill: #d8c1b8;
      }
    </style>
  </defs>
  <rect class="cls-1" x="-10" y="-10" width="1100" height="1100"/>
  <g>
    <g>
      <g>
        <path class="cls-2" d="M421.01,484.29l-9.53-4.82,3.3-6.53,1.47.74-2.46,4.86,2.47,1.25,2.41-4.76,1.47.74-2.41,4.76,2.64,1.34,2.46-4.86,1.47.74-3.3,6.53Z"/>
        <path class="cls-2" d="M433.33,463.5l-6.54-4.47,4.68,7.18-.45.66-8.38-1.78,6.54,4.47-1.06,1.54-8.81-6.03,1.49-2.18,7.43,1.58-4.15-6.37,1.49-2.18,8.81,6.03-1.06,1.54Z"/>
        <path class="cls-2" d="M444.43,450.21l-2.04-.8-3.29,3.62.99,1.96-1.43,1.58-5.09-10.27,1.57-1.73,10.72,4.07-1.43,1.58ZM435.75,446.7l2.48,4.84,2.58-2.84-5.06-2Z"/>
        <path class="cls-2" d="M456.54,439.03l-9.17-2.19,4.93,5.8-1.43,1.21-6.91-8.13,1.46-1.24,8.95,2.11-4.8-5.64,1.43-1.21,6.91,8.13-1.38,1.17Z"/>
        <path class="cls-2" d="M461.06,428.86c-1.72-2.68-1.08-5.86,1.61-7.59,2.69-1.73,5.85-.98,7.57,1.7,1.72,2.68,1.08,5.86-1.61,7.59-2.69,1.73-5.85.98-7.57-1.7ZM468.62,424.01c-1.19-1.86-3.25-2.49-5.06-1.34-1.82,1.17-2.09,3.29-.89,5.15,1.18,1.84,3.24,2.5,5.05,1.34,1.8-1.16,2.08-3.31.9-5.15Z"/>
        <path class="cls-2" d="M479.81,423.88l-4.59-9.64,6.6-3.15.71,1.49-4.91,2.34,1.19,2.5,4.81-2.29.71,1.49-4.81,2.29,1.27,2.67,4.91-2.34.71,1.49-6.61,3.14Z"/>
        <path class="cls-2" d="M493.56,417.86l-3.49-10.09,1.77-.61,2.95,8.53,4.45-1.54.54,1.56-6.21,2.15Z"/>
        <path class="cls-2" d="M514.26,412.05l-1.21-1.83-4.78,1.05-.33,2.17-2.08.46,1.81-11.32,2.28-.5,6.38,9.53-2.08.46ZM509.22,404.16l-.79,5.38,3.75-.82-2.96-4.56Z"/>
        <path class="cls-2" d="M532.62,404.47c-.03-3.34,2.47-5.54,5.56-5.56,2.08-.02,3.45.97,4.32,2.19l-1.53.88c-.57-.8-1.58-1.41-2.78-1.4-2.11.02-3.67,1.64-3.65,3.88.02,2.24,1.6,3.86,3.71,3.84,1.09,0,2.04-.53,2.52-.98v-1.66s-3.2.02-3.2.02v-1.65s5.04-.04,5.04-.04l.03,4c-1.05,1.18-2.53,1.96-4.39,1.97-3.09.02-5.62-2.15-5.64-5.49Z"/>
        <path class="cls-2" d="M550.54,404.83c.41-3.16,2.94-5.19,6.11-4.78s5.11,3.01,4.71,6.17c-.4,3.16-2.94,5.19-6.11,4.78-3.17-.41-5.11-3.01-4.71-6.17ZM559.46,405.98c.28-2.19-.89-4-3.02-4.27-2.14-.28-3.72,1.18-4,3.37-.28,2.17.87,4,3.02,4.27,2.13.27,3.72-1.2,4-3.37Z"/>
        <path class="cls-2" d="M575.27,414.93l-3.42-8.79-1.96,7.36-1.81-.48,2.75-10.31,1.86.49,3.37,8.56,1.91-7.16,1.81.48-2.75,10.31-1.75-.47Z"/>
        <path class="cls-2" d="M586.74,421.6l.61-.55c.25.45.62.76,1.02.92.43.18.9.16,1.05-.19.12-.28.02-.51-.31-.65-.19-.08-.42-.07-.59.02l-.47-.59.66-.73c-2.52-1.33-3.66-4.14-2.5-6.96,1.25-3.03,4.36-4.18,7.28-2.98,2,.82,2.8,2.36,3.05,3.85l-1.79.15c-.14-1.01-.83-2.02-1.9-2.46-1.95-.8-4.02.1-4.87,2.17s-.02,4.16,1.94,4.97c1.07.44,2.26.22,3.08-.41l1.17,1.36c-1.19.84-2.78,1.37-4.67.68l-.45.46c.19-.04.41-.02.6.06.56.23.82.82.57,1.43-.31.75-1.23.93-2.1.57-.68-.28-1.18-.75-1.38-1.1Z"/>
        <path class="cls-2" d="M606.24,428.45l.33-2.17-4.25-2.42-1.7,1.39-1.85-1.05,8.93-7.2,2.03,1.16-1.64,11.35-1.85-1.05ZM607.78,419.22l-4.19,3.47,3.34,1.9.85-5.37Z"/>
        <path class="cls-2" d="M613.83,433.41l6.34-8.58,1.51,1.11-5.36,7.26,3.78,2.79-.98,1.33-5.29-3.9Z"/>
        <path class="cls-2" d="M626.09,443.22l4.12-10.7,1.57,1.44-3.46,8.55,8.22-4.18,1.57,1.44-10.3,5.03-1.72-1.58Z"/>
        <path class="cls-2" d="M635.63,452.71l8.11-6.94,4.75,5.56-1.25,1.07-3.54-4.13-2.1,1.8,3.46,4.05-1.25,1.07-3.46-4.05-2.25,1.92,3.54,4.13-1.25,1.07-4.75-5.56Z"/>
        <path class="cls-2" d="M645.9,463l1.78.06c-.24,1.05-.17,2.39.66,3.62.86,1.27,1.82,1.36,2.4.97,1.86-1.25-2.77-5.64.5-7.83,1.46-.98,3.45-.45,4.76,1.49.93,1.38,1.24,2.79,1,4.15l-1.75-.11c.23-1.15-.09-2.31-.71-3.24-.62-.92-1.45-1.21-2.11-.76-1.65,1.11,2.84,5.57-.47,7.79-1.47.99-3.43.8-5.04-1.59-1.1-1.63-1.32-3.2-1.01-4.54Z"/>
        <path class="cls-2" d="M666.36,493.41c3.12-1.02,6.01.61,6.99,3.61.67,2.05.02,3.66-.95,4.82l-1.27-1.27c.68-.76,1-1.94.64-3.04-.66-2.01-2.68-3-4.81-2.3-2.13.7-3.18,2.69-2.52,4.7.36,1.09,1.3,1.86,2.31,2.07l-.28,1.78c-1.47-.38-2.94-1.28-3.62-3.33-.98-3,.39-6.02,3.5-7.04Z"/>
        <path class="cls-2" d="M666.09,511.57l10.42-2.27.4,1.83-10.42,2.27-.4-1.83Z"/>
        <path class="cls-2" d="M668.66,527.43l3.69-2.81-.21-1.84-3.96.46-.21-1.86,10.6-1.22.54,4.66c.24,2.1-.97,3.62-2.92,3.85-1.89.22-3.05-.9-3.4-2.15l-3.87,3.07-.25-2.15ZM675.95,526.75c1.02-.12,1.6-.96,1.48-2.01l-.29-2.54-3.37.39.29,2.54c.12,1.05.88,1.74,1.89,1.62Z"/>
        <path class="cls-2" d="M673.51,537.14l6.46.08-.03,1.89-6.4-.08c-1.7-.02-2.81.91-2.83,2.7-.02,1.78,1.07,2.73,2.76,2.76l6.4.08-.03,1.89-6.45-.08c-2.66-.03-4.4-1.58-4.36-4.66.04-3.1,1.83-4.6,4.46-4.57Z"/>
        <path class="cls-2" d="M667.66,560.37l4.27-1.79.26-1.84-3.94-.55.26-1.85,10.56,1.49-.65,4.64c-.29,2.09-1.85,3.26-3.8,2.99-1.88-.27-2.72-1.64-2.75-2.94l-4.51,2,.3-2.14ZM674.9,561.55c1.01.14,1.79-.52,1.93-1.57l.36-2.53-3.36-.47-.36,2.53c-.15,1.05.41,1.9,1.42,2.04Z"/>
        <path class="cls-2" d="M671.13,570.85c3.23.88,4.67,3.87,3.86,6.85-.54,2.01-1.86,3.06-3.27,3.57l-.43-1.71c.92-.33,1.79-1.14,2.1-2.3.55-2.04-.6-3.98-2.76-4.56s-4.15.5-4.7,2.54c-.29,1.05-.04,2.11.26,2.69l1.61.44.83-3.07,1.59.43-1.32,4.88-3.86-1.05c-.85-1.33-1.2-2.96-.72-4.75.81-2.98,3.58-4.83,6.81-3.96Z"/>
        <path class="cls-2" d="M660.76,586.4l9.96,3.85-.67,1.75-9.96-3.85.67-1.75Z"/>
        <path class="cls-2" d="M653.55,602.26l2.18.23,2.22-4.36-1.47-1.63.97-1.9,7.61,8.58-1.06,2.08-11.41-1.11.97-1.9ZM662.84,603.37l-3.66-4.02-1.74,3.42,5.41.6Z"/>
        <path class="cls-2" d="M641.39,620.7l10.95,3.41-1.33,1.66-8.76-2.88,4.72,7.93-1.33,1.66-5.71-9.95,1.46-1.82Z"/>
        <path class="cls-2" d="M627.78,635.52l1.99.92,3.5-3.42-.87-2.01,1.52-1.49,4.47,10.56-1.67,1.63-10.46-4.7,1.52-1.49ZM636.24,639.54l-2.18-4.98-2.75,2.69,4.93,2.29Z"/>
        <path class="cls-2" d="M622.53,642.14l.05,1.77c-1.06-.17-2.39-.02-3.57.89-1.22.93-1.24,1.9-.82,2.46,1.36,1.78,5.45-3.11,7.85.01,1.07,1.4.67,3.42-1.19,4.84-1.32,1.01-2.71,1.41-4.08,1.25v-1.76c1.17.15,2.31-.23,3.19-.91.88-.67,1.11-1.52.63-2.15-1.21-1.57-5.38,3.18-7.8.02-1.08-1.41-1.01-3.37,1.27-5.12,1.56-1.2,3.11-1.52,4.47-1.29Z"/>
        <path class="cls-2" d="M611.79,654.64c1.66,2.83.69,6-2.03,7.6-1.86,1.1-3.57.8-4.91.1l.96-1.51c.89.5,2.11.56,3.1-.02,1.82-1.07,2.35-3.26,1.22-5.19-1.14-1.93-3.31-2.53-5.13-1.46-.99.58-1.54,1.67-1.53,2.7l-1.79.11c.05-1.52.62-3.15,2.48-4.24,2.72-1.6,5.96-.91,7.62,1.92Z"/>
        <path class="cls-2" d="M595.72,662.18l2.53,5.95-1.74.74-2.5-5.89c-.66-1.56-1.97-2.21-3.62-1.51-1.63.7-2.07,2.08-1.41,3.64l2.5,5.89-1.74.74-2.52-5.94c-1.04-2.45-.33-4.66,2.51-5.87,2.86-1.21,4.95-.17,5.98,2.24Z"/>
        <path class="cls-2" d="M577.97,664.53l2.98,10.25-1.8.52-2.52-8.67-4.52,1.31-.46-1.58,6.32-1.83Z"/>
        <path class="cls-2" d="M557,669.28l1.11,1.89,4.83-.8.44-2.15,2.1-.35-2.39,11.22-2.31.38-5.88-9.85,2.1-.35ZM561.63,677.42l1.06-5.33-3.79.63,2.72,4.71Z"/>
        <path class="cls-2" d="M541.9,670.49l2.52,3.89,1.85-.07-.16-3.98,1.87-.07.43,10.66-4.68.19c-2.11.08-3.54-1.24-3.62-3.2-.08-1.9,1.13-2.98,2.4-3.23l-2.77-4.08,2.16-.09ZM542.04,677.82c.04,1.02.83,1.66,1.89,1.62l2.56-.1-.14-3.39-2.56.1c-1.05.04-1.79.75-1.75,1.77Z"/>
        <path class="cls-2" d="M522.23,669.46l-1.65,10.54-7.22-1.13.25-1.63,5.37.84.43-2.73-5.26-.82.25-1.63,5.26.82.46-2.92-5.37-.84.25-1.63,7.22,1.13Z"/>
        <path class="cls-2" d="M497.88,663.92l-3.61,10.04-6.88-2.48.56-1.55,5.12,1.84.94-2.6-5.01-1.8.56-1.55,5.01,1.8,1-2.78-5.12-1.84.56-1.55,6.88,2.48Z"/>
        <path class="cls-2" d="M477.29,655.07l1.51,9.31,3.45-6.79,1.67.85-4.83,9.51-1.71-.87-1.51-9.07-3.36,6.6-1.67-.85,4.83-9.51,1.61.82Z"/>
        <path class="cls-2" d="M468.8,650.17l-6.04,8.79-3.27-2.25c-2.74-1.88-3.35-4.98-1.57-7.57,1.78-2.58,4.88-3.11,7.62-1.23l3.27,2.25ZM459.49,650.24c-1.17,1.7-1.04,3.77.92,5.12l1.73,1.19,4.18-6.08-1.73-1.19c-1.91-1.32-3.96-.71-5.1.96Z"/>
        <path class="cls-2" d="M451.77,644.32c-2.14,2.36-5.38,2.57-7.75.42-2.37-2.15-2.47-5.4-.33-7.76s5.38-2.57,7.75-.42c2.37,2.15,2.47,5.4.33,7.76ZM445.11,638.27c-1.49,1.63-1.57,3.79.02,5.23,1.6,1.45,3.73,1.16,5.21-.48,1.47-1.62,1.58-3.78-.02-5.23-1.59-1.44-3.74-1.15-5.21.48Z"/>
        <path class="cls-2" d="M440.32,625.45l-5.42,10.11-1.38-1.62,4.5-8.06-8.68,3.13-1.38-1.62,10.85-3.71,1.51,1.78Z"/>
        <path class="cls-2" d="M428.34,609.28l-1.28,1.78,2.7,4.08,2.14-.47,1.17,1.77-11.21,2.38-1.29-1.95,6.59-9.37,1.17,1.77ZM422.79,616.81l5.3-1.2-2.11-3.2-3.19,4.4Z"/>
        <path class="cls-2" d="M422.83,602.87l-1.75-.29c.37-1.01.47-2.35-.2-3.68-.69-1.37-1.63-1.58-2.26-1.27-2,1,2.03,5.94-1.49,7.71-1.57.79-3.49,0-4.53-2.08-.74-1.49-.87-2.93-.46-4.24l1.72.34c-.37,1.12-.21,2.3.29,3.31.49.99,1.28,1.38,2,1.02,1.77-.89-2.11-5.89,1.46-7.67,1.59-.8,3.51-.36,4.79,2.22.88,1.76.9,3.34.42,4.64Z"/>
        <path class="cls-2" d="M412.59,589.98c-3.09,1.1-6.02-.46-7.08-3.42-.73-2.03-.12-3.66.82-4.84l1.31,1.23c-.66.78-.95,1.97-.56,3.05.71,1.99,2.76,2.92,4.87,2.17,2.11-.75,3.11-2.77,2.4-4.76-.39-1.09-1.35-1.83-2.36-2.01l.23-1.78c1.48.34,2.97,1.2,3.7,3.23,1.06,2.97-.23,6.03-3.32,7.13Z"/>
        <path class="cls-2" d="M408.23,572.78l-6.32,1.36-.4-1.85,6.26-1.34c1.66-.36,2.54-1.51,2.16-3.26-.37-1.74-1.65-2.43-3.31-2.07l-6.26,1.34-.4-1.85,6.31-1.35c2.6-.56,4.64.56,5.29,3.58.65,3.04-.77,4.9-3.33,5.45Z"/>
        <path class="cls-2" d="M409.3,554.9l-10.63.96-.17-1.86,8.99-.81-.42-4.68,1.64-.15.59,6.55Z"/>
        <path class="cls-2" d="M408.65,533.4l-2.07.73-.14,4.89,2.03.84-.06,2.13-10.55-4.49.07-2.33,10.79-3.89-.06,2.13ZM399.78,536.38l5.03,2.06.11-3.84-5.14,1.77Z"/>
        <path class="cls-2" d="M410.34,518.35l-4.3,1.74-.28,1.83,3.94.6-.28,1.85-10.55-1.61.71-4.63c.32-2.09,1.89-3.24,3.83-2.94,1.88.29,2.71,1.68,2.72,2.97l4.54-1.94-.33,2.13ZM403.12,517.08c-1.01-.15-1.79.5-1.95,1.55l-.39,2.53,3.35.51.39-2.53c.16-1.04-.39-1.9-1.4-2.06Z"/>
      </g>
      <circle class="cls-2" cx="409.16" cy="499.65" r="3.6"/>
      <circle class="cls-2" cx="660.59" cy="480.58" r="3.6"/>
    </g>
    <path class="cls-2" d="M603.42,573.15c7.64-8.48,11.79-16.99,13.97-22.47,6.69-16.81,5.39-31.42,4.8-37.58-1.02-10.8-4.33-20.93-9.75-30.36-4.52-7.86-10.14-14.8-17.51-20.13-13.15-9.52-27.99-12.74-43.96-11-16.4,1.78-30.57,8.69-42.98,19.38-12.77,10.99-22.14,24.39-28.22,40.1-.3.77-.54,1.56-.81,2.34.43-.25.63-.58.79-.93,4.33-10.04,9.99-19.29,16.94-27.7,10.19-12.33,22.38-22.05,37.6-27.49,10.17-3.63,20.41-5.07,30.65-3.57,1.03.15,6,.93,12.23,3.22,12.35,4.53,20.01,11.43,21.79,13.08,6.96,6.45,11.09,13.3,13.47,18.17,3.17,6.63,8.52,20.16,7.55,37.69-.75,13.56-5.04,23.9-7.76,29.62-9.47,19.91-25.73,31.87-46.74,37.85,4.33-7.57,8.66-14.94,12.81-22.42,4.14-7.46,8.1-15.03,12.23-22.73-.72-.06-1.11-.12-1.5-.12-4.81-.03-9.61-.12-14.42-.07-8.95.1-17.9.28-26.85.43-.45,0-.9.12-1.35.18.01.11.02.22.04.33,10.81.47,21.62.94,32.53,1.41-5.73,9.56-13.13,17.29-21.97,23.64-5.94,4.27-12.42,7.05-19.89,7.08-10.01.04-17.09-6.84-17.29-16.83-.13-6.22,1.65-11.95,4.47-17.41,5.53-10.71,13.74-19.01,23.56-25.79,9.18-6.34,19.01-11.11,30.35-12,4.29-.34,8.52-.05,12.48,1.85,5.13,2.46,6.51,7.1,3.63,11.97-1.76,2.97-4.24,5.15-7.3,6.72-.53.27-1.07.54-1.61.81l.17.38c.57-.14,1.16-.22,1.7-.43,2.95-1.1,5.58-2.72,7.79-4.96,4.73-4.8,3.87-11.5-1.86-15.05-3.61-2.23-7.61-2.97-11.74-3.24-10.86-.71-21.08,1.82-30.86,6.31-11.64,5.34-21.8,12.67-29.59,22.96-5.56,7.35-9.19,15.45-9.08,24.91.13,11.32,7.84,20.23,19.04,21.85,6.58.95,12.87-.28,18.86-3.02,9.3-4.25,16.61-11.05,23.36-18.53,1.3-1.44,2.53-2.93,3.79-4.4.09.09.19.18.28.27-.71,1.37-1.43,2.73-2.12,4.11-5.78,11.56-12.12,22.8-19.66,33.32-.28.39-.83.72-1.3.79-3.06.49-6.12,1.03-9.21,1.31-12.47,1.13-24.9,1.1-37.18-1.68-8.51-1.92-16.67-4.75-23.65-10.2-7.3-5.7-11.91-13.08-13.17-22.3-1.9-14.02,2.99-25.9,12.07-36.26,0,0,10.67-12.63,26.35-18.52,0,0,.07-.03.17-.06,1.66-.63,2.89-1.17,3.39-1.4,1.24-.55,2.49-1.1,3.73-1.66,1.59-.71,3.58-1.42,7.79-2.36,23.7-5.32,37.75-5.17,37.75-5.17,4.43.05,8.22.39,11.89.78,7.03.74,14.03,1.8,20.02,6.1.21.15.78.15.89,0,.19-.26.33-.85.18-1.02-.69-.77-1.41-1.58-2.28-2.12-3.81-2.36-8.09-3.42-12.41-4.32-13.91-2.89-27.87-2.27-41.82-.37-9.39,1.28-18.61,3.33-27.64,6.25-.41.13-1.16.05-1.41-.23-1.77-2.03-2.77-4.33-2.49-7.13.35-3.53,2.08-6.37,4.42-8.83,8.33-8.79,18.74-12.48,30.68-12.15,2.57.07,5.04.83,7.17,2.4,3.21,2.36,3.52,5.64.69,8.44-1.49,1.47-3.21,2.7-4.82,4.05-.37.31-.72.66-1.25,1.13,2.42.28,5.94-1.43,7.63-3.49,2.8-3.42,2.39-8.15-.98-11-2.04-1.73-4.48-2.6-7.04-3.2-8.22-1.94-16.22-.97-24.02,1.98-5.95,2.26-11.24,5.56-15.03,10.81-3.74,5.18-4.86,12.45.81,18.24.2.2.34.46.58.77-.55.24-.99.46-1.44.64-9.36,3.61-18.07,8.35-25.81,14.78-7.17,5.96-12.99,12.95-15.94,21.93-1.29,3.92-2.01,8.02-2.95,12.05-1.59,6.82-2.07,13.73-1.54,20.72.58,7.64,2.07,15.05,5.15,22.11,5.06,11.58,12.76,20.85,24.14,26.57,15.37,7.73,30.91,7.3,46.26-.16,10.95-5.32,19.56-13.52,26.73-23.21,2.08-2.82,4.37-4.47,7.77-5.37,4.1-1.01,9.69-2.78,15.81-6.05,2.32-1.24,10.86-5.97,19.27-15.3ZM601.94,575.97,596.11,579.99,551.12,600.6c-7.06,7.89-14.78,14.99-24.48,19.54-13.3,6.24-26.8,7.17-40.22.44-8.96-4.49-15.2-11.74-19.64-20.63-5.7-11.43-7.38-23.58-6.5-36.19.07-1,.17-1.99.26-2.99,0-.08.09-.15.26-.4.15.75.27,1.36.4,1.96,2.05,9.88,7.7,17.35,15.71,23.18,9.27,6.75,19.86,10.23,31.03,12.2,9.3,1.64,18.68,2.28,28.11,1.78,4.89-.26,9.76-.84,14.65-1.28.69-.06,1.38-.14,2.48-.26-.82,1.07-1.39,1.91-2.06,2.66Z"/>
  </g>
</svg>